<svg xmlns="http://www.w3.org/2000/svg" viewBox="0 0 24 20.001"><path id="icon-download" d="M-1793,3924a2,2,0,0,1-2-2v-5a2,2,0,0,1,2-2h3.482l5.235,6.406.206.2a1.652,1.652,0,0,0,1.066.39,1.667,1.667,0,0,0,1.278-.6l5.231-6.4h3.5a2,2,0,0,1,2,2v5a2,2,0,0,1-2,2Zm16-3h3v-3h-3Zm-15,0h3v-3h-3Zm8.494-1.235-6.358-7.783a.606.606,0,0,1,.505-.982H-1787v-5a2,2,0,0,1,2-2h4a2,2,0,0,1,2,2v5h2.359a.606.606,0,0,1,.5.981l-6.361,7.784a.652.652,0,0,1-.505.235A.649.649,0,0,1-1783.506,3919.765Z" transform="translate(1795 -3904)" fill="#000"></path></svg>